<?xml version="1.0" encoding="UTF-8"?>
<!DOCTYPE svg PUBLIC "-//W3C//DTD SVG 1.1//EN" "http://www.w3.org/Graphics/SVG/1.1/DTD/svg11.dtd">
<!-- Creator: CorelDRAW -->
<svg xmlns="http://www.w3.org/2000/svg" xml:space="preserve" width="2048px" height="2048px" style="shape-rendering:geometricPrecision; text-rendering:geometricPrecision; image-rendering:optimizeQuality; fill-rule:evenodd; clip-rule:evenodd"
viewBox="0 0 2048 2048"
 xmlns:xlink="http://www.w3.org/1999/xlink">
 <defs>
  <style type="text/css">
   <![CDATA[
    .fil2 {fill:none}
    .fil0 {fill:#424242}
    .fil1 {fill:#FFFFFE;fill-rule:nonzero}
   ]]>
  </style>
 </defs>
 <rect class="fil0" width="2048" height="2048"/>
 <g id="Layer_x0020_1">
  <metadata id="CorelCorpID_0Corel-Layer"/>
  <path class="fil1" d="M1294.83 490.559c4.79646,9.00473 12.4394,15.4099 19.8567,21.626 23.941,20.0622 46.5461,39.0059 46.5461,105.828 0,26.2217 -9.55749,51.8433 -25.187,71.4343 -11.4189,14.315 -26.1744,25.6134 -43.0548,32.002 -13.1327,40.9347 -29.3941,86.706 -50.426,129.761 -25.0772,51.3378 -56.9941,99.0261 -98.6457,131.382 -18.2977,14.2146 -37.9217,22.4339 -59.093,27.0673 -19.4291,4.25197 -39.476,5.29607 -60.8292,5.29607 -21.5421,0 -41.8618,-1.17638 -61.806,-5.68937 -21.2764,-4.81418 -41.0197,-13.3193 -59.4768,-27.8918 -41.3162,-32.6173 -72.8989,-80.0575 -97.669,-130.952 -20.8229,-42.7843 -36.9496,-88.1764 -49.9914,-128.811 -17.113,-6.24686 -32.1154,-17.3681 -43.689,-31.878 -15.2894,-19.1646 -24.6024,-44.3351 -24.6024,-71.7201 0,-22.9784 10.9559,-45.7252 26.4083,-65.5867 17.5299,-22.5366 41.9776,-42.5221 60.6556,-53.3894l32.0008 55.2496c-12.7665,7.42796 -29.6988,21.3732 -42.1571,37.3902 -7.55079,9.70513 -12.9059,19.2579 -12.9059,26.3362 0,12.5126 4.01457,23.7118 10.6016,31.9689 5.86182,7.34882 13.7162,12.2445 22.2603,13.2036l20.7945 2.33504 6.20552 19.9158c13.1516,42.2067 29.7744,91.4835 51.9201,136.987 21.1854,43.5296 47.2311,83.3422 79.669,108.951 10.1705,8.02914 21.4973,12.8173 33.9768,15.6414 13.8095,3.1252 29.9445,3.93898 47.8052,3.93898 17.4851,0 33.411,-0.747638 47.3292,-3.7937 12.176,-2.66457 23.2843,-7.25434 33.3425,-15.0673 32.8796,-25.5414 59.1308,-65.3493 80.3953,-108.882 22.3441,-45.7418 39.0803,-95.3351 52.304,-137.775l6.20552 -19.9146 20.7945 -2.33622c8.08938,-0.908268 15.7488,-6.05788 21.6768,-13.4894 6.94134,-8.70001 11.1862,-20.0658 11.1862,-31.6831 0,-37.0973 -11.4354,-46.6807 -23.5453,-56.8288 -11.9811,-10.0406 -24.3248,-20.3858 -35.1071,-40.6252l56.2512 -30z"/>
  <path class="fil1" d="M744.681 553.158c-1.98425,-1.31339 -4.92284,-3.15118 -7.94646,-5.04213 -37.0111,-23.1378 -84.8989,-53.0729 -86.2052,-237.938 -0.068504,-17.6043 14.1461,-31.9323 31.7504,-32.0008 9.45001,-0.0366142 17.954,4.04292 23.8169,10.552l0.0578741 -0.0519685c16.0228,17.7638 32.152,26.6516 47.4768,28.9051 17.1721,2.52402 34.7044,-3.06142 50.7012,-13.6382 55.3182,-36.5717 131.472,-69.5398 212.522,-77.8406 65.2123,-6.67796 133.6,2.46024 197.283,38.0126 0.724016,0.402756 1.42677,0.829134 2.10709,1.27795l0.0188977 -0.0283465c58.0477,38.5158 98.0233,74.1662 116.341,116.554 19.6949,45.5776 13.9488,94.2308 -21.7725,154.971 -5.01851,8.55827 -13.4138,13.9122 -22.5024,15.3591l0.00236221 0.0153543c-9.44292,1.52244 -18.4358,2.63622 -26.9292,3.31418 -9.15709,0.731103 -18.228,1.10669 -27.1807,1.10669 -65.1189,0 -125.31,-18.4028 -173.348,-49.278 -28.7693,-18.4902 -53.2288,-41.4957 -71.9103,-67.7941 -16.2036,24.0768 -37.1799,45.5315 -61.8544,63.4772 -43.5426,31.6701 -98.8064,52.4906 -159.533,57.3213 -8.62678,0.676772 -16.7197,-2.13898 -22.8957,-7.25434zm25.8047 -59.2926c0.922442,0.576378 1.83662,1.14803 2.76496,1.73504 44.439,-5.28426 84.5292,-21.1099 116.359,-44.2607 33.5173,-24.3768 57.6497,-56.778 67.4906,-93.1737 2.78032,-10.3642 10.7126,-19.0866 21.75,-22.3748 16.9134,-5.03859 34.7114,4.58622 39.75,21.4996 11.5784,38.4425 39.1311,72.1749 76.7741,96.3674 38.0445,24.4524 86.2241,39.026 138.848,39.026 7.69843,0 15.0957,-0.291733 22.1799,-0.8563 2.34331,-0.186614 4.6252,-0.392126 6.84567,-0.616536 17.8181,-34.6441 20.7071,-61.2449 10.8567,-84.0426 -12.4063,-28.7079 -44.55,-56.2831 -92.4107,-88.0985 -50.6067,-27.8114 -105.55,-34.8721 -158.339,-29.4662 -69.7217,7.13977 -135.659,35.7839 -183.771,67.591 -28.5437,18.8717 -61.2556,28.6288 -95.2028,23.6374 -9.1382,-1.3441 -18.2658,-3.73937 -27.3118,-7.29095 8.29253,92.0906 33.3201,107.76 53.4166,120.324z"/>
  <path class="fil1" d="M1060.21 1729.16l374.429 0 204.111 0c-0.485433,-8.5689 -1.1811,-288.016 -2.06811,-295.886 -8.25473,-73.3052 -33.4134,-118.899 -64.0949,-174.516 -19.6276,-35.5796 -41.3681,-74.9918 -62.7355,-127.167l-310.322 -49.9536 -76.1611 96.2032 -63.1583 268.706 0 282.614zm374.429 60.2764l-410.64 0 -36.2114 0 0 -30.1382 0 -315.508 0.708662 -5.76851 65.1792 -277.301 5.37402 -10.7126 93.5717 -118.195 13.3476 -16.8602 23.5713 3.7937 354.701 57.0957 21.0154 3.38268 6.56693 16.9831c22.2862,57.6378 45.58,99.8611 66.3957,137.593 34.9654,63.3839 63.4182,114.944 71.478,201.753 1.50118,16.1681 2.30197,304.814 2.30197,323.745l0 30.1382 -36.2114 0 -241.148 0z"/>
  <path class="fil1" d="M987.789 1729.16l-374.429 0 -204.111 0c0.485433,-8.5689 1.1811,-288.016 2.06811,-295.886 8.25473,-73.3052 33.4134,-118.899 64.0938,-174.516 19.6288,-35.5796 41.3693,-74.9918 62.7367,-127.167l310.322 -49.9536 76.1611 96.2032 63.1583 268.706 0 282.614zm-374.429 60.2764l410.64 0 36.2114 0 0 -30.1382 0 -315.508 -0.708662 -5.76851 -65.1792 -277.301 -5.37402 -10.7126 -93.5717 -118.195 -13.3476 -16.8602 -23.5713 3.7937 -354.701 57.0957 -21.0154 3.38268 -6.56693 16.9831c-22.2862,57.6378 -45.58,99.8611 -66.3957,137.593 -34.9654,63.3839 -63.4182,114.944 -71.478,201.753 -1.50118,16.1681 -2.30197,304.814 -2.30197,323.745l0 30.1382 36.2114 0 241.148 0z"/>
  <rect class="fil2" width="2048" height="2048"/>
 </g>
</svg>
